<?xml version="1.0" encoding="utf-8"?>
<!-- Generator: Adobe Illustrator 26.0.3, SVG Export Plug-In . SVG Version: 6.00 Build 0)  -->
<svg version="1.0" id="katman_1" xmlns="http://www.w3.org/2000/svg" xmlns:xlink="http://www.w3.org/1999/xlink" x="0px" y="0px"
	 viewBox="0 0 800 600" style="enable-background:new 0 0 800 600;" xml:space="preserve">
<style type="text/css">
	.st0{fill:#383838;}
</style>
<g>
	<path class="st0" d="M188.3,238.8l-48.5-27.3l-47.8,27.3v-27.3l47.8-28l47.8,28L188.3,238.8L188.3,238.8z"/>
	<path class="st0" d="M91.9,262h25.3v60.8c0,15.7,11.6,23.2,22.6,23.2s22.6-8.2,22.6-23.9v-60.8h25.3v62.9c0,14.4-4.8,26-13.7,33.5
		c-8.9,7.5-20.5,11.6-34.9,11.6c-13.7,0-25.3-3.4-34.2-11.6c-8.9-7.5-13.7-18.5-13.7-32.8C91.9,325.6,91.9,262,91.9,262z
		 M405.6,337.9c-7.5,6.8-16.4,10.3-26,10.3c-17.8,0-30.1-10.3-31.4-26h81.3c0,0,0.7-5.5,0.7-10.3c0-15-4.8-27.3-14.4-37.6
		c-9.6-10.3-21.9-15-36.9-15c-15.7,0-29.4,4.8-39.6,15s-15,23.2-15,40.3v0.7c0,16.4,5.5,29.4,15,39c10.3,9.6,23.9,15,40.3,15
		c19.1,0,34.2-7.5,45.8-20.5C424.1,348.8,405.6,337.9,405.6,337.9z M357.8,287.3c5.5-4.1,12.3-6.8,20.5-6.8c7.5,0,13,2.1,18.5,6.8
		c4.8,4.1,7.5,9.6,8.2,15h-56.1C348.9,296.2,352.3,291.4,357.8,287.3L357.8,287.3z M658.5,383.7c-10.3,23.9-21.2,32.1-37.6,32.1
		h-11.6v-22.6h8.9c5.5,0,10.9-2.1,15.7-13.7l4.8-11.6L595.7,262H621l30.8,76.6l31.4-76.6h25.3L658.5,383.7L658.5,383.7z M286,221.7
		v49.9c-8.2-7.5-21.2-11.6-33.5-11.6c-15,0-27.3,5.5-37.6,15.7c-10.3,10.3-15,23.2-15,39s4.8,28.7,15,39s22.6,15.7,37.6,15.7
		c17.1,0,28-6.8,33.5-11.6v9.6h24.6V222.3L286,221.7L286,221.7z M278.5,337.2c-6.2,6.2-13.7,8.9-22.6,8.9s-16.4-3.4-22.6-8.9
		c-6.2-6.2-8.9-13.7-8.9-22.6s2.7-17.1,8.9-22.6c6.2-6.2,13-8.9,22.6-8.9c9.6,0,16.4,3.4,22.6,8.9c6.2,6.2,9.6,13.7,9.6,22.6
		S284.7,331,278.5,337.2z M558.1,259.9c-19.1,0-28.7,7.5-35.5,15.7c-2.7-5.5-10.3-15.7-28-15.7c-15,0-23.9,7.5-28,13V262h-24.6
		v104.6h24.6v-60.2c0-14.4,8.9-24.6,20.5-24.6s18.5,8.9,18.5,23.2v61.5H530v-60.2c0-14.4,8.2-24.6,20.5-24.6
		c11.6,0,18.5,8.9,18.5,23.2v61.5h25.3v-64.9C594.3,275,579.9,259.9,558.1,259.9L558.1,259.9z"/>
</g>
</svg>
